<?xml version="1.0" encoding="utf-8"?>
<!-- Generator: Adobe Illustrator 24.0.1, SVG Export Plug-In . SVG Version: 6.00 Build 0)  -->
<svg version="1.1" id="Capa_1" xmlns="http://www.w3.org/2000/svg" xmlns:xlink="http://www.w3.org/1999/xlink" x="0px" y="0px"
	 viewBox="0 0 100 125" style="enable-background:new 0 0 100 125;" xml:space="preserve">
<style type="text/css">
	.st0{fill:#FFFFFF;}
</style>
<title>Forward</title>
<g>
	<path class="st0" d="M93.3,44.4c-2.5-5.7-5.8-10.7-9.9-14.8c-4.2-4.2-9.1-7.5-14.8-9.9C62.8,17.2,56.8,16,50.5,16
		s-12.3,1.2-18.1,3.7c-5.7,2.5-10.7,5.8-14.8,9.9c-4.2,4.2-7.5,9.1-9.9,14.8C5.2,50.2,4,56.2,4,62.5c0,6.3,1.2,12.3,3.7,18.1
		c2.5,5.7,5.8,10.7,9.9,14.8c4.2,4.2,9.1,7.5,14.8,9.9c5.7,2.5,11.8,3.7,18.1,3.7c6.3,0,12.4-1.2,18.1-3.7
		c5.7-2.5,10.7-5.8,14.8-9.9c4.1-4.2,7.4-9.1,9.9-14.8c2.5-5.7,3.7-11.7,3.7-18C97,56.2,95.8,50.2,93.3,44.4z M79.9,69.1H34.5
		l13.6,13.6c0.1,0.1,0.1,0.1,0.2,0.2c2.2,2.3,2.1,5.8-0.2,8c-2.3,2.2-5.8,2.1-8-0.2L17.1,67.6c-1.1-1.1-1.7-2.5-1.7-4
		c0,0,0-0.1,0-0.1c0,0,0-0.1,0-0.1c0-1.5,0.6-2.9,1.7-4l23.1-23.1c2.2-2.1,5.6-2.1,7.8,0c2.3,2.2,2.4,5.7,0.2,8L34.6,57.8h45.3
		c3.1,0,5.7,2.5,5.7,5.7C85.6,66.5,83,69.1,79.9,69.1z"/>
</g>
</svg>
