<?xml version="1.0" encoding="utf-8"?>
<!-- Generator: Adobe Illustrator 24.0.1, SVG Export Plug-In . SVG Version: 6.00 Build 0)  -->
<svg version="1.1" id="Capa_1" xmlns="http://www.w3.org/2000/svg" xmlns:xlink="http://www.w3.org/1999/xlink" x="0px" y="0px"
	 viewBox="0 0 182 181.4" style="enable-background:new 0 0 182 181.4;" xml:space="preserve">
<style type="text/css">
	.st0{fill:#EEA0C7;}
	.st1{fill:#FFFFFF;}
</style>
<g id="Capa_2_1_">
</g>
<g>
	<circle class="st0" cx="91.5" cy="90" r="81"/>
	<g transform="matrix(1 0 0 1 -184 -300 )">
		<path class="st1" d="M267,386.9c2.3-2.3,5.2-3.4,8.5-3.4s6.1,1.1,8.5,3.4c2.3,2.3,3.5,5.1,3.5,8.3s-1.2,6-3.5,8.3
			c-2.3,2.3-5.2,3.4-8.5,3.4s-6.1-1.1-8.5-3.4c-2.3-2.3-3.5-5.1-3.5-8.3S264.7,389.2,267,386.9z M295.5,366.5h9.3
			c2.9,0,5.5,1,7.5,3.1s3.1,4.5,3.1,7.4v36.6c0,2.9-1,5.3-3.1,7.4s-4.6,3.1-7.5,3.1h-58.7c-2.9,0-5.5-1-7.5-3.1s-3.1-4.5-3.1-7.4
			v-36.6c0-2.9,1-5.3,3.1-7.4s4.6-3.1,7.5-3.1h9.3l2.1-5.5c0.5-1.3,1.5-2.5,2.9-3.4c1.4-1,2.8-1.4,4.3-1.4h21.3
			c1.5,0,2.9,0.5,4.3,1.4c1.4,1,2.4,2.1,2.9,3.4L295.5,366.5z M262.3,408.1c3.7,3.6,8.1,5.4,13.2,5.4s9.5-1.8,13.2-5.4
			c3.7-3.6,5.5-7.9,5.5-12.9s-1.8-9.3-5.5-12.9c-3.7-3.6-8.1-5.4-13.2-5.4s-9.5,1.8-13.2,5.4c-3.7,3.6-5.5,7.9-5.5,12.9
			S258.7,404.6,262.3,408.1z"/>
	</g>
</g>
</svg>
