<?xml version="1.0" encoding="utf-8"?>
<!-- Generator: Adobe Illustrator 24.0.1, SVG Export Plug-In . SVG Version: 6.00 Build 0)  -->
<svg version="1.1" id="Capa_1" xmlns="http://www.w3.org/2000/svg" xmlns:xlink="http://www.w3.org/1999/xlink" x="0px" y="0px"
	 viewBox="0 0 182 181.4" style="enable-background:new 0 0 182 181.4;" xml:space="preserve">
<style type="text/css">
	.st0{fill:#A3D35F;}
	.st1{fill:#FFFFFF;}
	.st2{fill:#D7D7D7;}
</style>
<g id="Capa_2_1_">
</g>
<g>
	<ellipse class="st0" cx="92" cy="91" rx="78.1" ry="78.5"/>
	<g transform="matrix(1 0 0 1 -17 -412 )">
		<path class="st1" d="M56.5,522.5v-51c0-3.2,4.4-5.8,9.8-5.8h85.4c5.4,0,9.8,2.6,9.8,5.8v51c0,3.2-4.4,5.8-9.8,5.8h-31.9L109.5,540
			l-14.3-11.8H66.3C60.9,528.3,56.5,525.7,56.5,522.5z"/>
		<path class="st2" d="M56,522.5v-51c0-3.3,4.6-6,10.2-6h85.4c5.7,0,10.2,2.7,10.2,6v51c0,3.3-4.6,6-10.2,6h-31.6l-10.6,12l-14.6-12
			H66.3C60.6,528.5,56,525.8,56,522.5z M56.9,522.5c0,3.1,4.2,5.5,9.4,5.5h29l14.1,11.6l10.2-11.6h32.1c5.2,0,9.4-2.5,9.4-5.5v-51
			c0-3.1-4.2-5.5-9.4-5.5H66.3c-5.2,0-9.4,2.5-9.4,5.5V522.5z"/>
	</g>
</g>
</svg>
