<?xml version="1.0" encoding="utf-8"?>
<!-- Generator: Adobe Illustrator 24.0.1, SVG Export Plug-In . SVG Version: 6.00 Build 0)  -->
<svg version="1.1" id="Capa_1" xmlns="http://www.w3.org/2000/svg" xmlns:xlink="http://www.w3.org/1999/xlink" x="0px" y="0px"
	 viewBox="0 0 182 181.4" style="enable-background:new 0 0 182 181.4;" xml:space="preserve">
<style type="text/css">
	.st0{fill:#F77F7F;}
</style>
<g id="Capa_2_1_">
</g>
<g transform="translate(0,-952.36218)">
	<path class="st0" d="M62.3,979.4c-9.1,0-18.2,3.7-25,11c-13.7,14.7-13.7,38,0,52.7l54.4,58.3c1.5,1.5,3.9,1.6,5.5,0.2
		c0.1,0,0.1-0.1,0.2-0.2c18.1-19.4,36.3-38.8,54.5-58.3c13.7-14.7,13.7-38.1,0-52.7c-13.7-14.7-36.3-14.7-50,0l-7.2,7.7l-7.2-7.8
		C80.4,983.1,71.3,979.4,62.3,979.4L62.3,979.4z"/>
</g>
</svg>
