<?xml version="1.0" encoding="utf-8"?>
<!-- Generator: Adobe Illustrator 24.0.1, SVG Export Plug-In . SVG Version: 6.00 Build 0)  -->
<svg version="1.1" id="Capa_1" xmlns="http://www.w3.org/2000/svg" xmlns:xlink="http://www.w3.org/1999/xlink" x="0px" y="0px"
	 viewBox="0 0 182 181.4" style="enable-background:new 0 0 182 181.4;" xml:space="preserve">
<style type="text/css">
	.st0{fill:#A5D7CE;}
	.st1{fill:#FFFDFD;}
</style>
<g id="Capa_2_1_">
</g>
<circle class="st0" cx="91.5" cy="90" r="81.5"/>
<g transform="translate(0,-952.36218)">
	<path class="st1" d="M69.2,1001.6c-6.7,0-13.4,2.7-18.5,8.2c-10.1,10.9-10.1,28.2,0,39l40.3,43.2c1.1,1.1,2.9,1.2,4,0.1
		c0,0,0.1-0.1,0.1-0.1c13.4-14.4,26.9-28.8,40.3-43.1c10.1-10.9,10.1-28.2,0-39c-10.1-10.9-26.9-10.9-37,0l-5.4,5.7l-5.4-5.8
		C82.6,1004.3,75.9,1001.6,69.2,1001.6L69.2,1001.6z M69.2,1007.2c5.2,0,10.3,2.2,14.3,6.5l7.5,8c1.1,1.1,2.9,1.2,4,0.1
		c0,0,0.1-0.1,0.1-0.1l7.5-7.9c8.1-8.6,20.6-8.6,28.6,0c8.1,8.6,8.1,22.7,0,31.3c-12.7,13.6-25.4,27.3-38.2,40.9l-38.2-41
		c-8-8.6-8.1-22.7,0-31.3C58.9,1009.3,64,1007.2,69.2,1007.2z"/>
</g>
</svg>
