<?xml version="1.0" encoding="utf-8"?>
<!-- Generator: Adobe Illustrator 24.0.1, SVG Export Plug-In . SVG Version: 6.00 Build 0)  -->
<svg version="1.1" xmlns="http://www.w3.org/2000/svg" xmlns:xlink="http://www.w3.org/1999/xlink" x="0px" y="0px"
	 viewBox="0 0 100 125" style="enable-background:new 0 0 100 125;" xml:space="preserve">
<style type="text/css">
	.st0{fill:#EEA0C7;}
	.st1{fill:#FFFFFF;}
</style>
<g id="Capa_2">
</g>
<g id="Capa_1">
	<g>
		<circle class="st0" cx="49.5" cy="62.5" r="47"/>
		<g>
			<path class="st1" d="M76.1,44.2H59.5v-1.9c0-4.3-3.5-7.8-7.8-7.8h-4.1c-4.3,0-7.8,3.5-7.8,7.8v1.9H23.1c-1.3,0-2.4,1-2.4,2.4
				c0,1.3,1,2.4,2.4,2.4h3.3l2.9,35.2c0.3,3.9,3.6,6.9,7.5,6.9h25.5c3.9,0,7.2-3,7.5-6.9L72.8,49h3.3c1.3,0,2.4-1,2.4-2.4
				C78.4,45.3,77.5,44.2,76.1,44.2z M44.5,42.3c0-1.7,1.4-3,3.1-3h4.1c1.7,0,3.1,1.4,3.1,3v1.9H44.5V42.3z M65.2,83.7
				c-0.1,1.5-1.4,2.6-2.9,2.6H36.9c-1.5,0-2.7-1.2-2.9-2.6L31.1,49H68L65.2,83.7z"/>
			<path class="st1" d="M43.3,80.5c1.3,0,2.4-1,2.4-2.4V57.2c0-1.3-1-2.4-2.4-2.4c-1.3,0-2.4,1-2.4,2.4v21
				C41,79.4,42,80.5,43.3,80.5z"/>
			<path class="st1" d="M55.9,80.5c1.3,0,2.4-1,2.4-2.4V57.2c0-1.3-1-2.4-2.4-2.4c-1.3,0-2.4,1-2.4,2.4v21
				C53.6,79.4,54.6,80.5,55.9,80.5z"/>
		</g>
	</g>
</g>
</svg>
