<svg xmlns:dc="http://purl.org/dc/elements/1.1/" xmlns:cc="http://creativecommons.org/ns#" xmlns:rdf="http://www.w3.org/1999/02/22-rdf-syntax-ns#" xmlns:svg="http://www.w3.org/2000/svg" xmlns="http://www.w3.org/2000/svg" xmlns:sodipodi="http://sodipodi.sourceforge.net/DTD/sodipodi-0.dtd" xmlns:inkscape="http://www.inkscape.org/namespaces/inkscape" version="1.1" x="0px" y="0px" viewBox="0 0 100 125"><g transform="translate(0,-952.36218)"><path style="text-indent:0;text-transform:none;direction:ltr;block-progression:tb;baseline-shift:baseline;color:#000000;enable-background:accumulate;" d="m 33.279647,970.39306 c -4.70668,0 -9.41654,1.91674 -12.96875,5.71875 -7.10445,7.60375 -7.09584,19.73431 0,27.34379 l 28.21875,30.25 a 2.0001999,2.0001999 0 0 0 2.90625,0 c 9.41251,-10.0743 18.83747,-20.1441 28.250003,-30.2188 7.10445,-7.60373 7.10438,-19.73967 0,-27.34374 -7.104393,-7.6041 -18.833023,-7.60425 -25.937503,0 l -3.75,4 -3.75,-4.03125 c -3.55225,-3.802 -8.26207,-5.71875 -12.96875,-5.71875 z m 0,3.90625 c 3.61084,0 7.21011,1.51177 10.03125,4.53125 l 5.25,5.59375 a 2.0001999,2.0001999 0 0 0 2.90625,0 l 5.21875,-5.5625 c 5.64226,-6.03917 14.42031,-6.03904 20.062503,0 5.6422,6.03903 5.64213,15.86759 0,21.90629 -8.924303,9.5521 -17.825663,19.1044 -26.750003,28.6562 l -26.75,-28.6875 c -5.63844,-6.04655 -5.64213,-15.86759 0,-21.90624 2.8211,-3.01947 6.42041,-4.53125 10.03125,-4.53125 z" fill="#000000" fill-opacity="1" stroke="none" marker="none" visibility="visible" display="inline" overflow="visible"/></g><text x="0" y="115" fill="#000000" font-size="5px" font-weight="bold" font-family="'Helvetica Neue', Helvetica, Arial-Unicode, Arial, Sans-serif">Created by Three Six Five</text><text x="0" y="120" fill="#000000" font-size="5px" font-weight="bold" font-family="'Helvetica Neue', Helvetica, Arial-Unicode, Arial, Sans-serif">from the Noun Project</text></svg>