<?xml version="1.0" encoding="utf-8"?>
<!-- Generator: Adobe Illustrator 24.0.1, SVG Export Plug-In . SVG Version: 6.00 Build 0)  -->
<svg version="1.1" id="Capa_1" xmlns="http://www.w3.org/2000/svg" xmlns:xlink="http://www.w3.org/1999/xlink" x="0px" y="0px"
	 viewBox="0 0 30 37.5" style="enable-background:new 0 0 30 37.5;" xml:space="preserve">
<style type="text/css">
	.st0{fill:#FFFFFF;}
</style>
<title>home</title>
<path class="st0" d="M28.9,13.9c-0.8-1.8-1.8-3.3-3.1-4.6c-1.3-1.3-2.8-2.3-4.6-3.1C19.3,5.4,17.5,5,15.5,5s-3.8,0.4-5.6,1.1
	C8.1,6.9,6.5,7.9,5.2,9.2c-1.3,1.3-2.3,2.8-3.1,4.6C1.4,15.7,1,17.5,1,19.5c0,2,0.4,3.8,1.1,5.6c0.8,1.8,1.8,3.3,3.1,4.6
	c1.3,1.3,2.8,2.3,4.6,3.1c1.8,0.8,3.7,1.1,5.6,1.1c2,0,3.9-0.4,5.6-1.1c1.8-0.8,3.3-1.8,4.6-3.1c1.3-1.3,2.3-2.8,3.1-4.6
	c0.8-1.8,1.1-3.7,1.1-5.6C30,17.5,29.6,15.7,28.9,13.9z M24.6,19.6h-0.8V27c0,0.9-0.7,1.6-1.6,1.6h-3.3c-0.5,0-0.8-0.4-0.8-0.8v-4.9
	c0-0.5-0.4-0.8-0.8-0.8h-3.3c-0.5,0-0.8,0.4-0.8,0.8v4.9c0,0.5-0.4,0.8-0.8,0.8H8.9c-0.9,0-1.6-0.7-1.6-1.6v-7.4H6.4
	c-0.2,0-0.5-0.1-0.6-0.3c-0.3-0.3-0.3-0.9,0.1-1.2l8-7.2c0.9-0.8,2.4-0.8,3.3,0l8,7.2c0.2,0.2,0.3,0.4,0.3,0.6
	C25.4,19.2,25,19.6,24.6,19.6z"/>
</svg>
