<?xml version="1.0" encoding="utf-8"?>
<!-- Generator: Adobe Illustrator 24.0.1, SVG Export Plug-In . SVG Version: 6.00 Build 0)  -->
<svg version="1.1" xmlns="http://www.w3.org/2000/svg" xmlns:xlink="http://www.w3.org/1999/xlink" x="0px" y="0px"
	 viewBox="0 0 100 125" style="enable-background:new 0 0 100 125;" xml:space="preserve">
<style type="text/css">
	.st0{fill:#FFFFFF;}
</style>
<g id="Capa_2">
</g>
<g id="Capa_1">
	<g transform="matrix(1 0 0 1 -45 -464 )">
		<path class="st0" d="M115.2,564.1c6.1-3.2,11.1-7.6,15-13.1c-0.8-5.7-2.4-10.5-4.8-14.2c-2.4-3.8-5.8-6-10.2-6.5
			c-2.5,2.7-5.4,4.9-8.8,6.4c-3.4,1.5-7,2.3-10.8,2.3s-7.4-0.8-10.8-2.3c-3.4-1.5-6.3-3.7-8.8-6.4c-4.4,0.6-7.8,2.8-10.2,6.5
			c-2.4,3.8-4,8.5-4.8,14.2c3.9,5.5,8.9,9.9,15,13.1s12.6,4.8,19.7,4.8S109.1,567.3,115.2,564.1z M110.5,527.4
			c4.1-4.1,6.2-9.1,6.2-15c0-5.9-2.1-10.9-6.2-15c-4.1-4.1-9.1-6.2-15-6.2s-10.9,2.1-15,6.2c-4.1,4.1-6.2,9.1-6.2,15
			c0,5.9,2.1,10.9,6.2,15c4.1,4.1,9.1,6.2,15,6.2S106.4,531.5,110.5,527.4z M141.1,507.3c2.6,6.1,3.9,12.5,3.9,19.2
			s-1.3,13.1-3.9,19.2c-2.6,6.1-6.1,11.4-10.5,15.8c-4.4,4.4-9.7,8-15.8,10.6c-6.1,2.6-12.5,3.9-19.3,3.9c-6.7,0-13.1-1.3-19.2-3.9
			c-6.1-2.6-11.4-6.1-15.8-10.6c-4.4-4.4-7.9-9.7-10.6-15.8S46,533.2,46,526.5s1.3-13.1,3.9-19.2c2.6-6.1,6.1-11.4,10.6-15.8
			s9.7-7.9,15.8-10.6s12.5-3.9,19.2-3.9s13.1,1.3,19.2,3.9s11.4,6.1,15.8,10.6C134.9,495.9,138.5,501.2,141.1,507.3z"/>
	</g>
</g>
</svg>
