<?xml version="1.0" encoding="utf-8"?>
<!-- Generator: Adobe Illustrator 24.0.1, SVG Export Plug-In . SVG Version: 6.00 Build 0)  -->
<svg version="1.1" id="Capa_1" xmlns="http://www.w3.org/2000/svg" xmlns:xlink="http://www.w3.org/1999/xlink" x="0px" y="0px"
	 viewBox="0 0 512 640" style="enable-background:new 0 0 512 640;" xml:space="preserve">
<style type="text/css">
	.st0{fill:#EEA0C7;}
	.st1{fill:#FFFFFF;}
</style>
<g>
	<circle class="st0" cx="256.5" cy="320.5" r="244.8"/>
	<g>
		<path class="st1" d="M121.9,472.5l57.8-11.6c1.4-0.7,2.7-1.4,4.2-2.3l7.3-7.3c3.2-3.2,3.2-8.4,0-11.6l-46.3-46.3
			c-3.2-3.2-8.4-3.2-11.6,0l-7.3,7.3c-0.7,1.4-1.4,2.7-2.3,4.2l-11.4,57.8C111.2,468.6,116.2,473.6,121.9,472.5z"/>
		<path class="st1" d="M207.5,423.5c3.2,3.2,8.4,3.2,11.6,0l139.3-139.3c3.2-3.2,3.2-8.4,0-11.6l-46.2-46.2c-3.2-3.2-8.4-3.2-11.6,0
			L161.3,365.7c-3.2,3.2-3.2,8.4,0,11.6L207.5,423.5z"/>
		<path class="st1" d="M381,250c3.2,3.2,8.4,3.2,11.6,0l20.1-20.1c3.2-3.2,3.2-8.4,0-11.6l-46.3-46.2c-3.2-3.2-8.4-3.2-11.6,0
			l-20.1,20.1c-3.2,3.2-3.2,8.4,0,11.6L381,250z"/>
	</g>
</g>
</svg>
