<svg xmlns="http://www.w3.org/2000/svg" viewBox="0 0 30 37.5" x="0px" y="0px"><title>home</title><path d="M26.67,13.26,17,4.48a3,3,0,0,0-4,0L3.33,13.26a1,1,0,0,0-.07,1.41A1,1,0,0,0,4,15H5v9a2,2,0,0,0,2,2h4a1,1,0,0,0,1-1V19a1,1,0,0,1,1-1h4a1,1,0,0,1,1,1v6a1,1,0,0,0,1,1h4a2,2,0,0,0,2-2V15h1a1,1,0,0,0,.67-1.74Z"/><text x="0" y="45" fill="#000000" font-size="5px" font-weight="bold" font-family="'Helvetica Neue', Helvetica, Arial-Unicode, Arial, Sans-serif">Created by P Thanga Vignesh</text><text x="0" y="50" fill="#000000" font-size="5px" font-weight="bold" font-family="'Helvetica Neue', Helvetica, Arial-Unicode, Arial, Sans-serif">from the Noun Project</text></svg>