<svg xmlns="http://www.w3.org/2000/svg" xmlns:xlink="http://www.w3.org/1999/xlink" version="1.1" x="0px" y="0px" viewBox="0 0 512 640" enable-background="new 0 0 512 512" xml:space="preserve"><g><path d="M484.5,459.2H27.5c-14,0-25.4,11.4-25.4,25.4c0,14,11.4,25.4,25.4,25.4h457.1c14,0,25.4-11.4,25.4-25.4   C509.9,470.6,498.6,459.2,484.5,459.2z"/><path d="M96.9,401.7l71.8-14.4c1.8-0.9,3.4-1.8,5.2-2.8l9.1-9.1c4-4,4-10.4,0-14.4l-57.5-57.5c-4-4-10.4-4-14.4,0l-9.1,9.1   c-0.9,1.8-1.8,3.4-2.8,5.2L85,389.7C83.6,396.8,89.8,403.1,96.9,401.7z"/><path d="M218.9,325.2c4,4,10.4,4,14.4,0L406.4,152c4-4,4-10.4,0-14.4L349,80.2c-4-4-10.4-4-14.4,0L161.5,253.4c-4,4-4,10.4,0,14.4   L218.9,325.2z"/><path d="M442.3,101.8c4,4,10.4,4,14.4,0l25-25c4-4,4-10.4,0-14.4L424.2,5c-4-4-10.4-4-14.4,0l-25,25c-4,4-4,10.4,0,14.4   L442.3,101.8z"/></g><text x="0" y="527" fill="#000000" font-size="5px" font-weight="bold" font-family="'Helvetica Neue', Helvetica, Arial-Unicode, Arial, Sans-serif">Created by ProSymbols</text><text x="0" y="532" fill="#000000" font-size="5px" font-weight="bold" font-family="'Helvetica Neue', Helvetica, Arial-Unicode, Arial, Sans-serif">from the Noun Project</text></svg>